<svg width="316" height="320" xmlns="http://www.w3.org/2000/svg">
  <g transform="matrix(0.10686717493874189,0,0,0.10686717493874189,50.913153603749265,98.76564454081118) ">
    <path fill="#666" opacity="0.4" d="m1575.79883,-40.10349l-32,0l0,32l32,0l0,-32zm0,208a15.99954,15.99954 0 0 0 -16,16l0,48l32,0l0,-48a15.99954,15.99954 0 0 0 -16,-16zm-176,-302l0,92a17.97968,17.97968 0 0 0 18,18l30,0l0,-128l-30,0a17.97843,17.97843 0 0 0 -18,18zm430,-18l-30,0l0,128l30,0a17.97718,17.97718 0 0 0 18,-18l0,-92a17.97594,17.97594 0 0 0 -18,-18zm-222,144l32,0l0,-32l-32,0l0,32zm64,0l32,0l0,-32l-32,0l0,32zm0,176a16,16 0 1 0 16,16a15.99954,15.99954 0 0 0 -16,-16zm-48,-448a15.99954,15.99954 0 0 0 -16,16l0,48l32,0l0,-48a15.99954,15.99954 0 0 0 -16,-16z" />
    <path fill="#666" d="m1515.79883,39.89651l216,0a36.0356,36.0356 0 0 0 36,-36l0,-175a44.98286,44.98286 0 0 0 -45,-45l-198,0a44.98536,44.98536 0 0 0 -45,45l0,175a36.03811,36.03811 0 0 0 36,36zm188,-48l-32,0l0,-32l32,0l0,32zm-16,-144a32,32 0 1 1 -32,32a31.99658,31.99658 0 0 1 32,-32zm-80,112l32,0l0,32l-32,0l0,-32zm-32,32l-32,0l0,-32l32,0l0,32zm-16,-144a32,32 0 1 1 -32,32a31.99658,31.99658 0 0 1 32,-32zm192,224l-256,0a95.99975,95.99975 0 0 0 -96,96l0,32a32.00158,32.00158 0 0 0 32,32l96,0l0,-64a32.00033,32.00033 0 0 1 32,-32l128,0a32.00033,32.00033 0 0 1 32,32l0,64l96,0a32.00158,32.00158 0 0 0 32,-32l0,-32a95.99975,95.99975 0 0 0 -96,-96z" />
  </g>
  <g>
    <path fill="#F59E0B" opacity="0.4" d="m22.44218,215.55384c-15.69717,15.69836 -23.45563,54.96857 -21.31381,96.75418c41.95875,2.16079 81.1163,-5.67831 96.7518,-21.31618c24.46131,-24.45776 26.03151,-57.06888 3.83061,-79.26978c-22.19853,-22.19852 -54.80966,-20.62715 -79.2686,3.83179zm57.65828,49.21673c-6.51558,6.51678 -22.83419,9.78287 -40.31977,8.88157c-0.88946,-17.41087 2.34343,-33.77451 8.8851,-40.31622c10.18964,-10.19201 23.78058,-10.84666 33.03095,-1.59628c9.24802,9.25154 8.59575,22.8401 -1.59627,33.03092l-0.00002,0zm-47.7841,-169.18935l-30.00206,59.99935a17.07761,17.07761 0 0 0 -1.53697,6.49898a14.57666,14.57666 0 0 0 14.5729,14.5729l56.74986,0c14.23372,-28.78883 37.04657,-74.91259 47.29551,-95.53028c0.31546,-0.55503 0.6072,-1.07328 0.92504,-1.62238l-61.96802,0c-9.92399,0.00948 -21.57472,7.21055 -26.03625,16.08142zm200.0097,98.42043c-20.62122,10.32721 -66.8304,33.20172 -95.53502,47.40698l0,56.81154a14.64815,14.64815 0 0 0 14.54917,14.44599a17.01972,17.01972 0 0 0 6.45154,-1.53699l59.94718,-29.99019c8.88036,-4.44018 16.09091,-16.09091 16.09091,-26.02438l0,-61.6407c0.04032,-0.0249 0.0759,-0.05337 0.11385,-0.07827l0,-0.3202c-0.55028,0.31546 -1.06024,0.60839 -1.61763,0.92622z" />
    <path fill="#F59E0B" d="m307.51264,13.62764a10.16442,10.16442 0 0 0 -7.61139,-7.63274c-19.67246,-4.21722 -35.36964,-4.21722 -50.48333,-4.21722c-54.1313,0 -95.13417,24.66173 -129.03561,77.61183c-0.33918,0.59416 -0.6499,1.13972 -0.98671,1.73267c-10.24894,20.61769 -33.06179,66.74145 -47.29551,95.53028l6.39937,0a58.29144,58.29144 0 0 1 58.29159,58.29159l0,6.46459c28.70462,-14.20525 74.9138,-37.07977 95.53502,-47.40698c0.58349,-0.33325 1.1124,-0.63685 1.69353,-0.97011c52.96907,-34.04019 77.63673,-74.99682 77.63673,-128.89567c0.04744,-15.23466 0.08776,-30.73022 -4.14369,-50.50824zm-83.2842,104.73322a29.1458,29.1458 0 1 1 29.1458,-29.14698a29.15889,29.15889 0 0 1 -29.1458,29.14698zm-175.5626,114.97504c-6.5417,6.54168 -9.77459,22.90535 -8.88513,40.31622c17.48558,0.90132 33.80419,-2.36477 40.31977,-8.88157c10.19202,-10.19083 10.84429,-23.77939 1.59628,-33.03095c-9.25038,-9.25035 -22.84131,-8.59571 -33.03092,1.5963z" />
  </g>
</svg>
